<?xml version="1.0" encoding="UTF-8" standalone="no"?>
<!DOCTYPE svg PUBLIC "-//W3C//DTD SVG 1.1//EN"
 "http://www.w3.org/Graphics/SVG/1.1/DTD/svg11.dtd">
<!-- Generated by graphviz version 2.38.0 (20140413.2041)
 -->
<!-- Title: models_diagram Pages: 1 -->
<svg width="484pt" height="187pt"
 viewBox="0.00 0.00 484.00 187.00" xmlns="http://www.w3.org/2000/svg" xmlns:xlink="http://www.w3.org/1999/xlink">
<g id="graph0" class="graph" transform="scale(1 1) rotate(0) translate(4 183)">
<title>models_diagram</title>
<polygon fill="none" stroke="none" points="-4,4 -4,-183 480,-183 480,4 -4,4"/>
<!-- _diagram_info -->
<g id="node1" class="node"><title>_diagram_info</title>
<text text-anchor="start" x="8" y="-150.1" font-family="Times,serif" font-size="13.00">Models diagram</text>
<text text-anchor="start" x="8" y="-136.1" font-family="Times,serif" font-size="13.00">Date: Jul 05 2016 &#45; 21:32</text>
<text text-anchor="start" x="8" y="-122.1" font-family="Times,serif" font-size="13.00">Migration version: 20160706005646</text>
<text text-anchor="start" x="8" y="-108.1" font-family="Times,serif" font-size="13.00">Generated by RailRoady 1.5.1</text>
<text text-anchor="start" x="8" y="-94.1" font-family="Times,serif" font-size="13.00">http://railroady.prestonlee.com</text>
</g>
<!-- Worker -->
<g id="node2" class="node"><title>Worker</title>
<path fill="none" stroke="black" d="M244,-72.5C244,-72.5 464,-72.5 464,-72.5 470,-72.5 476,-78.5 476,-84.5 476,-84.5 476,-166.5 476,-166.5 476,-172.5 470,-178.5 464,-178.5 464,-178.5 244,-178.5 244,-178.5 238,-178.5 232,-172.5 232,-166.5 232,-166.5 232,-84.5 232,-84.5 232,-78.5 238,-72.5 244,-72.5"/>
<text text-anchor="middle" x="354" y="-163.3" font-family="Times,serif" font-size="14.00">Worker</text>
<polyline fill="none" stroke="black" points="232,-155.5 476,-155.5 "/>
<text text-anchor="start" x="240" y="-140.3" font-family="Times,serif" font-size="14.00">id :integer</text>
<text text-anchor="start" x="240" y="-125.3" font-family="Times,serif" font-size="14.00">name :character varying</text>
<text text-anchor="start" x="240" y="-110.3" font-family="Times,serif" font-size="14.00">email :character varying</text>
<text text-anchor="start" x="240" y="-95.3" font-family="Times,serif" font-size="14.00">created_at :timestamp without time zone</text>
<text text-anchor="start" x="240" y="-80.3" font-family="Times,serif" font-size="14.00">updated_at :timestamp without time zone</text>
</g>
<!-- Operation -->
<g id="node3" class="node"><title>Operation</title>
<ellipse fill="none" stroke="black" cx="354" cy="-18" rx="46.2923" ry="18"/>
<text text-anchor="middle" x="354" y="-14.3" font-family="Times,serif" font-size="14.00">Operation</text>
</g>
<!-- Worker&#45;&gt;Operation -->
<g id="edge1" class="edge"><title>Worker&#45;&gt;Operation</title>
<path fill="none" stroke="#da2ae4" d="M354,-64.1131C354,-57.8814 354,-51.7949 354,-46.2116"/>
<ellipse fill="none" stroke="#da2ae4" cx="354" cy="-68.3682" rx="4" ry="4"/>
<polygon fill="#da2ae4" stroke="#da2ae4" points="354,-46.1889 358.5,-36.1888 354,-41.1889 354,-36.1889 354,-36.1889 354,-36.1889 354,-41.1889 349.5,-36.1889 354,-46.1889 354,-46.1889"/>
</g>
</g>
</svg>
