<?xml version="1.0" encoding="UTF-8" standalone="no"?>
<!DOCTYPE svg PUBLIC "-//W3C//DTD SVG 1.1//EN"
 "http://www.w3.org/Graphics/SVG/1.1/DTD/svg11.dtd">
<!-- Generated by graphviz version 2.38.0 (20140413.2041)
 -->
<!-- Title: models_diagram Pages: 1 -->
<svg width="428pt" height="158pt"
 viewBox="0.00 0.00 428.35 158.00" xmlns="http://www.w3.org/2000/svg" xmlns:xlink="http://www.w3.org/1999/xlink">
<g id="graph0" class="graph" transform="scale(1 1) rotate(0) translate(4 154)">
<title>models_diagram</title>
<polygon fill="none" stroke="none" points="-4,4 -4,-154 424.347,-154 424.347,4 -4,4"/>
<!-- _diagram_info -->
<g id="node1" class="node"><title>_diagram_info</title>
<text text-anchor="start" x="8" y="-135.6" font-family="Times,serif" font-size="13.00">Models diagram</text>
<text text-anchor="start" x="8" y="-121.6" font-family="Times,serif" font-size="13.00">Date: Jul 05 2016 &#45; 21:32</text>
<text text-anchor="start" x="8" y="-107.6" font-family="Times,serif" font-size="13.00">Migration version: 20160706005646</text>
<text text-anchor="start" x="8" y="-93.6" font-family="Times,serif" font-size="13.00">Generated by RailRoady 1.5.1</text>
<text text-anchor="start" x="8" y="-79.6" font-family="Times,serif" font-size="13.00">http://railroady.prestonlee.com</text>
</g>
<!-- Inventario -->
<g id="node2" class="node"><title>Inventario</title>
<ellipse fill="none" stroke="black" cx="279" cy="-111" rx="46.5926" ry="18"/>
<text text-anchor="middle" x="279" y="-107.3" font-family="Times,serif" font-size="14.00">Inventario</text>
</g>
<!-- Operation -->
<g id="node3" class="node"><title>Operation</title>
<ellipse fill="none" stroke="black" cx="279" cy="-18" rx="46.2923" ry="18"/>
<text text-anchor="middle" x="279" y="-14.3" font-family="Times,serif" font-size="14.00">Operation</text>
</g>
<!-- Inventario&#45;&gt;Operation -->
<g id="edge1" class="edge"><title>Inventario&#45;&gt;Operation</title>
<path fill="none" stroke="#978031" d="M272.882,-84.7285C272.08,-72.7246 272.041,-58.3622 272.765,-46.1291"/>
<ellipse fill="none" stroke="#978031" cx="273.243" cy="-88.8985" rx="4" ry="4"/>
<polygon fill="#978031" stroke="#978031" points="272.775,-46.0058 278.082,-36.4096 273.186,-41.0227 273.597,-36.0397 273.597,-36.0397 273.597,-36.0397 273.186,-41.0227 269.112,-35.6697 272.775,-46.0058 272.775,-46.0058"/>
</g>
<!-- Operation&#45;&gt;Inventario -->
<g id="edge2" class="edge"><title>Operation&#45;&gt;Inventario</title>
<path fill="none" stroke="#16f932" d="M285.12,-44.2924C285.961,-56.9054 285.96,-72.1184 285.118,-84.7285"/>
<ellipse fill="none" stroke="#16f932" cx="284.749" cy="-40.0247" rx="4" ry="4"/>
<ellipse fill="#16f932" stroke="#16f932" cx="284.757" cy="-88.8985" rx="4" ry="4"/>
</g>
<!-- Worker -->
<g id="node4" class="node"><title>Worker</title>
<ellipse fill="none" stroke="black" cx="382" cy="-111" rx="38.1938" ry="18"/>
<text text-anchor="middle" x="382" y="-107.3" font-family="Times,serif" font-size="14.00">Worker</text>
</g>
<!-- Worker&#45;&gt;Operation -->
<g id="edge3" class="edge"><title>Worker&#45;&gt;Operation</title>
<path fill="none" stroke="#31f596" d="M358.475,-89.2154C342.391,-75.0056 321.081,-56.1786 304.577,-41.5969"/>
<ellipse fill="none" stroke="#31f596" cx="361.53" cy="-91.9147" rx="4.00002" ry="4.00002"/>
<polygon fill="#31f596" stroke="#31f596" points="304.399,-41.4396 299.884,-31.4461 300.652,-38.129 296.904,-34.8185 296.904,-34.8185 296.904,-34.8185 300.652,-38.129 293.925,-38.1909 304.399,-41.4396 304.399,-41.4396"/>
</g>
</g>
</svg>
